<svg xmlns="http://www.w3.org/2000/svg" viewBox="0 0 48 48">
  <defs>
    <linearGradient id="g" x1="0" y1="0" x2="1" y2="1">
      <stop offset="0" stop-color="#1A6B8A"/>
      <stop offset="1" stop-color="#0F4C63"/>
    </linearGradient>
  </defs>
  <rect width="48" height="48" rx="9" fill="url(#g)"/>
  <!-- robot outline -->
  <g fill="none" stroke="#58B5E0" stroke-width="1.8" stroke-linecap="round" stroke-linejoin="round">
    <!-- antenna -->
    <line x1="24" y1="8" x2="24" y2="11"/>
    <circle cx="24" cy="7" r="1.5" fill="#58B5E0" stroke="none"/>
    <!-- head -->
    <rect x="16" y="11" width="16" height="12" rx="3" fill="none"/>
    <!-- eyes -->
    <circle cx="20.5" cy="17" r="2" fill="#58B5E0" stroke="none"/>
    <circle cx="27.5" cy="17" r="2" fill="#58B5E0" stroke="none"/>
    <!-- neck -->
    <line x1="22" y1="23" x2="22" y2="25"/>
    <line x1="26" y1="23" x2="26" y2="25"/>
    <!-- body -->
    <rect x="14" y="25" width="20" height="11" rx="2" fill="none"/>
    <!-- arms -->
    <line x1="14" y1="28" x2="9" y2="32"/>
    <line x1="34" y1="28" x2="39" y2="32"/>
    <!-- legs -->
    <line x1="19" y1="36" x2="19" y2="42"/>
    <line x1="29" y1="36" x2="29" y2="42"/>
    <!-- feet -->
    <line x1="17" y1="42" x2="21" y2="42"/>
    <line x1="27" y1="42" x2="31" y2="42"/>
  </g>
</svg>
